<?xml version="1.0" encoding="utf-8"?>
<!-- Generator: Adobe Illustrator 23.0.3, SVG Export Plug-In . SVG Version: 6.00 Build 0)  -->
<svg version="1.1" id="Capa_1" xmlns="http://www.w3.org/2000/svg" xmlns:xlink="http://www.w3.org/1999/xlink" x="0px" y="0px"
	 viewBox="0 0 512 512" style="enable-background:new 0 0 512 512;" xml:space="preserve">
<style type="text/css">
	.st0{fill:#FFFFFF;}
</style>
<g>
	<g>
		<path class="st0" d="M503.4,228.9L273.7,19.6c-10.1-9.2-25.3-9.2-35.4,0L8.6,228.9c-8.1,7.4-10.7,18.7-6.8,28.9
			c3.9,10.2,13.6,16.8,24.5,16.8H63v209.7c0,8.3,6.7,15.1,15.1,15.1h125.9c8.3,0,15.1-6.7,15.1-15.1V356.9h74v127.3
			c0,8.3,6.7,15.1,15.1,15.1H434c8.3,0,15.1-6.7,15.1-15.1V274.5h36.7c10.9,0,20.5-6.6,24.5-16.8
			C514.1,247.6,511.5,236.2,503.4,228.9z"/>
	</g>
</g>
<g>
	<g>
		<path class="st0" d="M445.1,42.7H344l116.2,105.6V57.8C460.1,49.5,453.4,42.7,445.1,42.7z"/>
	</g>
</g>
</svg>
