<?xml version="1.0" encoding="utf-8"?>
<!-- Generator: Adobe Illustrator 23.0.3, SVG Export Plug-In . SVG Version: 6.00 Build 0)  -->
<svg version="1.1" id="Layer_1" xmlns="http://www.w3.org/2000/svg" xmlns:xlink="http://www.w3.org/1999/xlink" x="0px" y="0px"
	 viewBox="0 0 440 440" style="enable-background:new 0 0 440 440;" xml:space="preserve">
<style type="text/css">
	.st0{fill:#FFFFFF;}
</style>
<path class="st0" d="M358.5,31.3H341V10c0-5.5-4.5-10-10-10c-5.5,0-10,4.5-10,10v21.4H119.4V10c0-5.5-4.5-10-10-10
	c-5.5,0-10,4.5-10,10v21.4h-17c-27.6,0-49.9,22.4-49.9,49.9v308.8c0,27.6,22.4,49.9,49.9,49.9h276c27.6,0,49.9-22.4,49.9-49.9V81.2
	C408.3,53.7,386,31.3,358.5,31.3z M388.5,390c0,16.5-13.4,29.9-30,30H82.4c-16.5,0-29.9-13.4-30-30V81.2c0-16.5,13.4-29.9,30-30h17
	v15.5c0,5.5,4.5,10,10,10c5.5,0,10-4.5,10-10V51.2H321v15.5c0,5.5,4.5,10,10,10c5.5,0,10-4.5,10-10V51.2h17.5
	c16.5,0,29.9,13.4,30,30V390z"/>
<path class="st0" d="M159.5,211.8l-36.9,35.2l-17-17c-3.9-3.9-10.2-3.9-14.1,0c-3.9,3.9-3.9,10.2,0,14.1l23.9,23.9
	c1.9,1.9,4.4,2.9,7.1,2.9c2.6,0,5.1-1,6.9-2.8l43.8-42c2.6-2.5,3.7-6.1,2.8-9.6c-0.9-3.5-3.5-6.2-6.9-7.2
	C165.8,208.3,162.1,209.3,159.5,211.8z"/>
<path class="st0" d="M342.3,229.9H227.4c-5.5,0-10,4.5-10,10s4.5,10,10,10h114.9c5.5,0,10-4.5,10-10S347.8,229.9,342.3,229.9z"/>
<path class="st0" d="M159.5,111.9L122.7,147l-17-17c-3.9-3.9-10.2-3.9-14.1,0c-3.9,3.9-3.9,10.2,0,14.1l23.9,23.9
	c1.9,1.9,4.4,2.9,7.1,2.9c2.6,0,5.1-1,6.9-2.8l43.8-42c2.6-2.5,3.7-6.1,2.8-9.6c-0.9-3.5-3.5-6.2-6.9-7.2
	C165.8,108.4,162.1,109.4,159.5,111.9z"/>
<path class="st0" d="M342.3,130.1H227.4c-5.5,0-10,4.5-10,10s4.5,10,10,10h114.9c5.5,0,10-4.5,10-10S347.8,130.1,342.3,130.1z"/>
<path class="st0" d="M159.5,311.6l-36.9,35.2l-17-17c-3.9-3.9-10.2-3.9-14.1,0c-3.9,3.9-3.9,10.2,0,14.1l23.9,23.9
	c1.9,1.9,4.4,2.9,7.1,2.9c2.6,0,5.1-1,6.9-2.8l43.8-42c2.6-2.5,3.7-6.1,2.8-9.6c-0.9-3.5-3.5-6.2-6.9-7.2
	C165.8,308.2,162.1,309.1,159.5,311.6z"/>
<path class="st0" d="M342.3,329.8H227.4c-5.5,0-10,4.5-10,10c0,5.5,4.5,10,10,10h114.9c5.5,0,10-4.5,10-10
	C352.3,334.3,347.8,329.8,342.3,329.8z"/>
</svg>
