<svg xmlns="http://www.w3.org/2000/svg" viewBox="0 0 358.14 500.16"><defs><style>.cls-1{fill:#2d7ec1;}.cls-2{fill:#19699e;}.cls-3,.cls-4{fill:#3d3d3d;}.cls-3{opacity:0.15;}.cls-4{opacity:0.3;}.cls-5{fill:#ffc552;}.cls-6{fill:#ffd469;}.cls-7{fill:#ed9015;}.cls-8{fill:#fcac2b;}.cls-9{fill:#f4a025;}.cls-10{fill:#efab33;}.cls-11{fill:#fce897;}.cls-12{fill:#ffeea4;}.cls-13{fill:#fffae6;}</style></defs><title>Asset 1</title><g id="Layer_2" data-name="Layer 2"><g id="Layer_1-2" data-name="Layer 1"><path class="cls-1" d="M353.72,449.48a12.83,12.83,0,0,1-6.18,2.8l-24.7,4h0l-20.73,3.33a12.43,12.43,0,0,0-7,3.68l-14.6,14.93v0L263,496.35h-.05a12.53,12.53,0,0,1-18-.05,12.92,12.92,0,0,1-2.07-2.9L193,397.62,179.08,371l-4.4-8.41-12.61-24.26a10.46,10.46,0,0,1-.63-1.4,6.42,6.42,0,0,1-.53-1.74,12.76,12.76,0,0,1,3.62-11.79,10.94,10.94,0,0,1,2.85-2L179,315.23h.05L192,308.46h.05l42.33-22,24.64-12.86c.49-.24.92-.43,1.4-.63a12.44,12.44,0,0,1,7.59-.33,15.53,15.53,0,0,1,2.66,1.06,12.48,12.48,0,0,1,3.14,2.37,9.62,9.62,0,0,1,2.08,2.85l21.79,41.85v0l16.05,30.78,42.91,82.44c.24.48.43,1,.63,1.45A12.43,12.43,0,0,1,353.72,449.48Z"/><path class="cls-2" d="M322.83,456.29l-20.73,3.33a12.73,12.73,0,0,0-7,3.68l-14.59,15L222.89,367.65l-30.82-59.17,42.32-22,42,80.58Z"/><path class="cls-3" d="M353.72,449.48a12.83,12.83,0,0,1-6.18,2.8l-24.7,4h0l-20.73,3.33a12.43,12.43,0,0,0-7,3.68H295l-14.55,14.93,0,0-17.49,18.07a12.53,12.53,0,0,1-18-.05,10.81,10.81,0,0,1-2.12-2.9L192.9,397.62,179,371V371l-4.35-8.41h-.05L162,338.28a6.88,6.88,0,0,1-.58-1.4,6.42,6.42,0,0,1-.53-1.74,12.45,12.45,0,0,1,3.62-11.79,10.94,10.94,0,0,1,2.85-2L179,315.23h.05L192,308.46h.05l42.23-22L259,273.62a8.54,8.54,0,0,1,1.49-.63,12.44,12.44,0,0,1,7.59-.33,15.53,15.53,0,0,1,2.66,1.06,12.75,12.75,0,0,1,5.22,5.22l21.79,41.85v0l16,30.78,43,82.44c.24.48.43,1,.63,1.45A12.62,12.62,0,0,1,353.72,449.48Z"/><path class="cls-1" d="M196.09,338.28l-12.62,24.26L179.08,371,179,371l-13.68,26.29-50,96.11a12.61,12.61,0,0,1-20.2,3L77.69,478.28l-14.59-15A12.76,12.76,0,0,0,56,459.62l-20.68-3.33-24.79-4a12.58,12.58,0,0,1-9.14-18.22l43.4-83.36,15.61-30L82.18,279a12.58,12.58,0,0,1,17-5.37l24.64,12.86,42.29,22v.05L179,315.23h.05l11.64,6.09A12.59,12.59,0,0,1,196.09,338.28Z"/><path class="cls-2" d="M166.08,308.46v.05l-26.05,50-4,7.68L77.69,478.28l-14.59-15A12.76,12.76,0,0,0,56,459.62l-20.68-3.33,46.39-89.16,12.76-24.45,29.28-56.2v-.05Z"/><path class="cls-4" d="M297.71,320.79v0a188.51,188.51,0,0,1-34.07,21.84,185.24,185.24,0,0,1-45.47,15.85,190.06,190.06,0,0,1-34.7,4c-1.45,0-2.94,0-4.39,0s-3,0-4.4,0h-.05a189.48,189.48,0,0,1-34.6-4,188.35,188.35,0,0,1-79.59-37.74L82.18,279a12.58,12.58,0,0,1,17-5.37l24.64,12.86v-.05l42.29,22v.05L179,315.23h.05L192,308.46h.05l42.23-22L259,273.62a8.54,8.54,0,0,1,1.49-.63,12.44,12.44,0,0,1,7.59-.33,15.53,15.53,0,0,1,2.66,1.06,12.48,12.48,0,0,1,3.14,2.37,9.62,9.62,0,0,1,2.08,2.85Z"/><path class="cls-5" d="M352.54,173.45A173.3,173.3,0,1,1,233,8.56,173.45,173.45,0,0,1,352.54,173.45Z"/><path class="cls-6" d="M233,8.56c-22.92,106.15-113.78,187-224.81,194.82A173.56,173.56,0,0,1,233,8.56Z"/><path class="cls-7" d="M315.92,173.45a136.81,136.81,0,1,1-23-75.92A136.85,136.85,0,0,1,315.92,173.45Z"/><path class="cls-8" d="M315.92,173.45A136.83,136.83,0,0,1,68.38,253.87a135.8,135.8,0,0,1-22.51-64.44c-.32-3.77-.48-7.62-.48-11.48A136.82,136.82,0,0,1,292.94,97.53,136.11,136.11,0,0,1,315.92,173.45Z"/><path class="cls-9" d="M215.81,45.26A248.57,248.57,0,0,1,45.87,189.43c-.32-3.77-.48-7.62-.48-11.48A137,137,0,0,1,215.81,45.26Z"/><circle class="cls-7" cx="181.39" cy="177.95" r="118.8" transform="translate(-21.55 330.86) rotate(-81.45)"/><path class="cls-5" d="M297.88,173.45a118.8,118.8,0,0,1-237.41,6.67c-.14-2.21-.2-4.42-.2-6.67a118.81,118.81,0,1,1,237.61,0Z"/><path class="cls-6" d="M203.28,57.1a248.62,248.62,0,0,1-142.81,123c-.14-2.21-.2-4.42-.2-6.67a118.94,118.94,0,0,1,143-116.35Z"/><path class="cls-10" d="M250.89,161a3.34,3.34,0,0,0,.65-4V157s-2.51-5.18-4.79-3.12a1.14,1.14,0,0,0-.44.94l-40.09-6.12a3.35,3.35,0,0,1-2.53-1.87l-18.9-39a3.38,3.38,0,0,0-6.07,0l-19.45,38.72a3.39,3.39,0,0,1-2.56,1.83l-42.92,5.93a3.39,3.39,0,0,0-1.92,5.76l30.81,30.46a3.37,3.37,0,0,1,.95,3l-7.18,40.15c-1.12.23-2.11.7-2,1.66.31,2.13,2.63,4,2.63,4h0a3.32,3.32,0,0,0,3.76.47l38.49-19.88a3.35,3.35,0,0,1,3.15,0l38.21,20.43a3.39,3.39,0,0,0,4.94-3.53l-7-42.75a3.39,3.39,0,0,1,1-3Z"/><path class="cls-11" d="M218.11,188.91a3.44,3.44,0,0,0-1,3l7,42.75a3.4,3.4,0,0,1-5,3.54L181,217.76a3.38,3.38,0,0,0-3.15,0l-38.48,19.88a3.38,3.38,0,0,1-4.89-3.59l7.62-42.65a3.39,3.39,0,0,0-1-3l-7.8-7.73h0l-23-22.73a3.39,3.39,0,0,1,1.92-5.76l42.93-5.93a3.42,3.42,0,0,0,2.55-1.83l19.45-38.72a3.39,3.39,0,0,1,6.07,0l11.24,23.19,7.66,15.81a3.43,3.43,0,0,0,2.53,1.87l42.83,6.53a3.38,3.38,0,0,1,1.84,5.79Z"/><path class="cls-12" d="M194.49,128.9a87.78,87.78,0,0,1-61.15,51.74h0l-23-22.73a3.39,3.39,0,0,1,1.92-5.76l42.93-5.93a3.42,3.42,0,0,0,2.55-1.83l19.45-38.72a3.39,3.39,0,0,1,6.07,0Z"/><polygon class="cls-13" points="138.07 87.19 132.22 74.29 119.33 68.45 132.33 62.71 138.07 49.71 143.51 63 156.81 68.45 142.84 73.22 138.07 87.19"/></g></g></svg>